<svg xmlns="http://www.w3.org/2000/svg" viewBox="0 0 197.44 179.96"><defs><style>.cls-1{fill:#fe9bb1;}.cls-2{fill:#270089;}</style></defs><title>logo-1</title><g id="Layer_2" data-name="Layer 2"><g id="Capa_1" data-name="Capa 1"><path class="cls-1" d="M174,43.15c-2.28-1.39-91.47-21.46-122.93-12.62S-17.4,74.16,26.4,95,164.33,95,174,86.8,197.72,57.57,174,43.15Z"/><path class="cls-2" d="M79.53,3.88h6.76a.91.91,0,0,0,0-1.81H79.53a.91.91,0,0,0,0,1.81Z"/><path class="cls-2" d="M82,3q.12,6.09-.07,12.17c0,1.16,1.77,1.16,1.81,0Q83.91,9.06,83.8,3A.91.91,0,0,0,82,3Z"/><path class="cls-2" d="M89.06,3l-.17,11.48a.91.91,0,0,0,1.81,0L90.87,3a.91.91,0,0,0-1.81,0Z"/><path class="cls-2" d="M90,9.94l5.74-.41c1.15-.08,1.16-1.89,0-1.81L90,8.13c-1.15.08-1.16,1.89,0,1.81Z"/><path class="cls-2" d="M95.52,2V14.8a.91.91,0,0,0,1.81,0V2a.91.91,0,0,0-1.81,0Z"/><path class="cls-2" d="M105.55.29,99.88,6.6a.91.91,0,0,0,.4,1.51,37.72,37.72,0,0,1,6.39,2.44V9l-6.84,4a.91.91,0,0,0,.46,1.68A32.12,32.12,0,0,1,108,16a.91.91,0,0,0,.48-1.75,34.68,34.68,0,0,0-8.21-1.34l.46,1.69,6.83-4a.91.91,0,0,0,0-1.56,39.36,39.36,0,0,0-6.82-2.62l.4,1.51,5.67-6.31c.78-.87-.5-2.15-1.28-1.28Z"/><path class="cls-2" d="M3.36,32.47Q8.28,67,10.23,101.76c.21,3.74,4.64,4.71,6.74,1.82,9.48-13,18.92-26.14,26.4-40.45,1.19-2.28-.24-5.62-3.12-5.45L10.34,59.53l1.83,6.74a135.12,135.12,0,0,0,29-24.76c1.37-1.55,1.55-4.68-.73-5.68A97,97,0,0,0,5.35,27.64c-4.65-.19-4.64,7,0,7.23a87.45,87.45,0,0,1,31.48,7.21L36.1,36.4A128.67,128.67,0,0,1,8.52,60c-2.85,1.81-1.94,7,1.82,6.74l29.91-1.84-3.13-5.44C29.64,73.79,20.2,86.89,10.72,99.93l6.74,1.83q-2-35.76-7.12-71.21c-.66-4.59-7.63-2.64-7,1.92Z"/><path class="cls-2" d="M60.71,104a701.26,701.26,0,0,0-1.42-75.75l-6.17,2.55Q67.85,42.4,81.68,55l1.6-6q-13.84,3.65-27.94,6.1c-2.59.45-3.59,4.37-1.6,6l28,23.47c3.55,3,8.69-2.12,5.12-5.12L58.86,56l-1.6,6Q71.36,59.61,85.2,56a3.64,3.64,0,0,0,1.6-6Q73,37.29,58.24,25.73c-2.2-1.73-6.43-.91-6.18,2.56A698.7,698.7,0,0,1,53.47,104c-.16,4.65,7.07,4.65,7.24,0Z"/><path class="cls-2" d="M97.39,104.41l10.8-73.91h-7l14.5,76.28c.86,4.57,7.84,2.64,7-1.92L108.19,28.58c-.64-3.38-6.46-3.52-7,0l-10.8,73.91c-.67,4.55,6.3,6.52,7,1.92Z"/><path class="cls-2" d="M98,84.53,105.89,77l-3.09-1.28A36.81,36.81,0,0,0,103,83a1.84,1.84,0,0,0,3.09,1.28l9-9.23c1.63-1.67-.93-4.23-2.56-2.56l-9,9.23L106.59,83a36.81,36.81,0,0,1-.17-7.27c.12-1.64-2-2.29-3.09-1.28L95.41,82c-1.69,1.61.87,4.16,2.56,2.56Z"/><path class="cls-2" d="M122.34,32.09q4.81,35.82,7.24,71.89h7.23l-.15-1.23c-.57-4.56-7.81-4.62-7.24,0l.16,1.23c.55,4.49,7.55,4.74,7.23,0q-2.43-36.06-7.23-71.89c-.61-4.55-7.86-4.61-7.24,0Z"/><path class="cls-2" d="M122.76,34.21q16.53,36.92,31.54,74.46c1.36,3.41,7.63,3.46,7.1-1q-5.09-42.54-6.78-85.37c-.19-4.64-7.42-4.67-7.24,0q1.69,42.79,6.79,85.37l7.1-1Q145.92,68.34,129,30.56c-1.9-4.24-8.14-.56-6.25,3.65Z"/><path class="cls-2" d="M163.29,22.39l3.55,80.67,7.11-1-.47-2.25c-1-4.55-7.93-2.63-7,1.92L167,104c.84,4,7.29,3.1,7.11-1l-3.56-80.67c-.2-4.63-7.44-4.66-7.23,0Z"/><path class="cls-2" d="M164,22q12.33,23.94,26.72,46.73V65.07A212.78,212.78,0,0,0,167.75,102c-2,4.16,4.21,7.84,6.25,3.65a212.78,212.78,0,0,1,22.93-36.94,3.54,3.54,0,0,0,0-3.65Q182.55,42.3,170.21,18.33c-2.13-4.14-8.38-.48-6.25,3.66Z"/><path class="cls-2" d="M65.58,11.91h5.15a1.81,1.81,0,0,0,0-3.61H65.58a1.81,1.81,0,0,0,0,3.61Z"/><path class="cls-2" d="M114.49,10.33a34.22,34.22,0,0,1,5.45-.11c2.33.14,2.32-3.48,0-3.62a35.43,35.43,0,0,0-5.45.11,1.86,1.86,0,0,0-1.81,1.81,1.83,1.83,0,0,0,1.81,1.81Z"/><path class="cls-2" d="M29.37,166.68a153.85,153.85,0,0,1,.86-21.35q.36-3.26.89-6.5c.15-.94.13-3.72.77-4.25,2.63-2.15,3.62,1.65,3.53,3.24a5.3,5.3,0,0,1-6.2,4.72c-2-.28-3.64,1.87-2.07,3.54a47.82,47.82,0,0,1,8.22,11.21l.33-2.57-.17.17,2.07-.55-.26-.07,1.48,2.61,0-.13c.87-2.59-3.22-3.71-4.09-1.13l-.05.13a2.16,2.16,0,0,0,1.48,2.61,2.38,2.38,0,0,0,2.49-.64,2.18,2.18,0,0,0,.33-2.57,52.16,52.16,0,0,0-8.88-12.07l-2.06,3.54c5,.7,10.21-1.79,11.37-7.09.87-4-1.65-10.6-6.45-10.75-6.19-.19-6.13,9.58-6.66,13.63a152.6,152.6,0,0,0-1.21,24.27c.07,2.72,4.31,2.74,4.23,0Z"/><path class="cls-2" d="M77.73,133.06H93.56c2.73,0,2.73-4.24,0-4.24H77.73c-2.73,0-2.73,4.24,0,4.24Z"/><path class="cls-2" d="M83.48,131.09q.28,15.25-.16,30.5c-.09,2.92,4.15,2.92,4.24,0q.43-15.26.15-30.5a2.12,2.12,0,1,0-4.23,0Z"/><path class="cls-2" d="M101.26,131l-.41,31.58c0,3.2,4.2,3.2,4.24,0L105.5,131c0-3.2-4.2-3.2-4.24,0Z"/><path class="cls-2" d="M103.46,149.36l13.45-1c2.7-.2,2.72-4.43,0-4.24l-13.45,1c-2.7.2-2.72,4.44,0,4.24Z"/><path class="cls-2" d="M116.39,130.86v32.79a2.12,2.12,0,1,0,4.23,0V130.86a2.12,2.12,0,1,0-4.23,0Z"/><path class="cls-2" d="M139.9,126.75l-13.29,14.79a2.14,2.14,0,0,0,.93,3.54,87.47,87.47,0,0,1,15,5.72v-3.66l-16,9.39a2.14,2.14,0,0,0,1.07,3.95,75.5,75.5,0,0,1,18.11,3c2.63.77,3.75-3.32,1.13-4.08a80.48,80.48,0,0,0-19.24-3.14l1.07,3.95,16-9.39a2.14,2.14,0,0,0,0-3.66,93.14,93.14,0,0,0-16-6.14l.93,3.54,13.3-14.8c1.82-2-1.17-5-3-3Z"/><path class="cls-2" d="M185.16,125.4q-6.56,6.06-12.68,12.49a1.9,1.9,0,0,0,.43,3.07,51.72,51.72,0,0,0,17.3,6.38l-.94-3.26-16.83,17.2,3.54,1.9.31-.3c2.35-1.28.22-4.66-2.13-3.38a3.79,3.79,0,0,0-2.26,2.65c-.66,1.83,2.13,3.33,3.54,1.9l16.83-17.21a1.91,1.91,0,0,0-.94-3.26,48.93,48.93,0,0,1-16.28-6l.43,3.07q6.12-6.45,12.68-12.5c1.93-1.78-1.07-4.54-3-2.76Z"/><path class="cls-2" d="M67.18,146.3l.22-.35-.2-.27C67.2,145.89,67.2,146.1,67.18,146.3Z"/><path class="cls-2" d="M73.37,144c-4.61-4.72-9.11-9.57-13.73-14.29a2.12,2.12,0,0,0-2.89,0l0,0A73.1,73.1,0,0,0,48,138.21c-1.63,1.87-4.61,4.57-4.51,7.3.11,3.12,3.45,6.5,5.17,8.85a119.52,119.52,0,0,0,8,9.82,2.09,2.09,0,0,0,2.94,0L73.37,147A2.13,2.13,0,0,0,73.37,144Zm-15.68,4.87c-2.67,0-2.67-4.16,0-4.16S60.37,148.88,57.69,148.88Zm9.49-2.58c0-.2,0-.41,0-.62l.2.27Z"/><path class="cls-2" d="M55.84,170.22V178c0,2.67,4.15,2.68,4.15,0v-7.73c0-2.68-4.15-2.68-4.15,0Z"/><path class="cls-2" d="M56.72,115.14v7c0,2.67,4.16,2.68,4.16,0v-7c0-2.67-4.16-2.67-4.16,0Z"/><path class="cls-2" d="M160,161.77c-1.62-7.19-3.28-14.52-2.94-21.94.06-1.25.78-11.64,3.76-7.77,1.28,1.67-.58,6.12-1.45,7.48a17.24,17.24,0,0,1-4.89,4.7,1.9,1.9,0,0,0-.67,2.56q5,7.2,9.46,14.67c1.25,2.06,4.49.18,3.24-1.89q-4.5-7.49-9.46-14.67l-.67,2.57c4.37-3,8.21-7.23,8.42-12.85.14-3.53-1.41-9-6-8-4.86,1.09-5.19,8.37-5.45,12.24-.54,8,1.26,16.07,3,23.87.53,2.35,4.14,1.36,3.62-1Z"/><path class="cls-2" d="M5.33,127.07l-1.21,35.8c-.07,2,2.47,2.3,3.5.95l.36-.48a1.85,1.85,0,0,0,0-1.9l-.27-.52c-1.13-2.14-4.37-.25-3.24,1.89l-.09-.89,3.49,1,1.21-35.8c.08-2.41-3.67-2.41-3.75,0Z"/><path class="cls-2" d="M4.66,127.83c1.76,2.1,4.09,3.47,5.93,5.45,4.4,4.74.5,8.66-4,11.05-1.35.71-1.15,3.14.45,3.42,1.76.32,5.47.27,6.94,1.25q2.79,0,1.15,3.68c-.71.74-1.44,1.46-2.19,2.17A145.24,145.24,0,0,1,.78,165.27c-1.88,1.45,0,4.71,1.9,3.24C6.19,165.8,9.62,163,12.9,160c2.29-2.09,5.64-4.47,6.73-7.53,2.58-7.23-7.13-7.53-11.61-8.33l.44,3.42c4-2.09,8.54-5.09,8.31-10.19-.26-5.73-6.21-8.31-9.46-12.19-1.55-1.85-4.19.81-2.65,2.65Z"/></g></g></svg>