<?xml version="1.0" encoding="utf-8"?>
<!-- Generator: Adobe Illustrator 25.1.0, SVG Export Plug-In . SVG Version: 6.00 Build 0)  -->
<svg version="1.1" id="Capa_1" xmlns="http://www.w3.org/2000/svg" xmlns:xlink="http://www.w3.org/1999/xlink" x="0px" y="0px"
	 viewBox="0 0 197.4 180" style="enable-background:new 0 0 197.4 180;" xml:space="preserve">
<style type="text/css">
	.st0{fill:#FE9BB1;}
	.st1{fill:#FFFFFF;}
</style>
<g id="Layer_2">
	<g id="Capa_1_1_">
		<path class="st0" d="M174,43.1c-2.3-1.4-91.5-21.5-122.9-12.6S-17.4,74.2,26.4,95s137.9,0,147.6-8.2S197.7,57.6,174,43.1z"/>
		<path class="st1" d="M79.5,3.9h6.8c0.5-0.1,0.9-0.5,0.8-1c0-0.4-0.4-0.8-0.8-0.8h-6.8c-0.5,0.1-0.9,0.5-0.8,1
			C78.8,3.5,79.1,3.8,79.5,3.9z"/>
		<path class="st1" d="M82,3c0.1,4.1,0.1,8.1-0.1,12.2c0,1.2,1.8,1.2,1.8,0C83.9,11.1,83.9,7,83.8,3c-0.1-0.5-0.5-0.8-1-0.8
			C82.4,2.3,82.1,2.6,82,3z"/>
		<path class="st1" d="M89.1,3l-0.2,11.5c0.1,0.5,0.5,0.9,1,0.8c0.4,0,0.8-0.4,0.8-0.8L90.9,3c-0.1-0.5-0.5-0.9-1-0.8
			C89.4,2.2,89.1,2.6,89.1,3z"/>
		<path class="st1" d="M90,9.9l5.7-0.4c1.2-0.1,1.2-1.9,0-1.8L90,8.1C88.8,8.2,88.8,10,90,9.9z"/>
		<path class="st1" d="M95.5,2v12.8c0.1,0.5,0.5,0.9,1,0.8c0.4,0,0.8-0.4,0.8-0.8V2c-0.1-0.5-0.5-0.9-1-0.8
			C95.9,1.2,95.6,1.6,95.5,2z"/>
		<path class="st1" d="M105.6,0.3l-5.7,6.3c-0.4,0.4-0.3,0.9,0,1.3c0.1,0.1,0.2,0.2,0.4,0.2c2.2,0.6,4.3,1.4,6.4,2.4V9l-6.8,4
			c-0.4,0.3-0.6,0.8-0.3,1.3c0.2,0.3,0.4,0.4,0.7,0.4c2.6,0.1,5.2,0.6,7.7,1.3c0.5,0.1,1-0.2,1.1-0.7c0.1-0.4-0.2-0.9-0.6-1
			c-2.7-0.8-5.4-1.2-8.2-1.3l0.5,1.7l6.8-4c0.4-0.3,0.6-0.8,0.3-1.2c-0.1-0.1-0.2-0.2-0.3-0.3c-2.2-1.1-4.5-2-6.8-2.6l0.4,1.5
			l5.7-6.3C107.6,0.7,106.3-0.5,105.6,0.3L105.6,0.3z"/>
		<path class="st1" d="M3.4,32.5c3.3,23,5.6,46.1,6.9,69.3c0.2,3.7,4.6,4.7,6.7,1.8c9.5-13,18.9-26.1,26.4-40.5
			c1.2-2.3-0.2-5.6-3.1-5.5l-29.9,1.8l1.8,6.7c10.8-6.8,20.6-15.2,29-24.8c1.4-1.5,1.5-4.7-0.7-5.7c-11.1-4.9-23-7.7-35.1-8.2
			c-4.7-0.2-4.6,7,0,7.2c10.8,0.4,21.5,2.9,31.5,7.2l-0.7-5.7c-8,9.1-17.3,17.1-27.6,23.6c-2.8,1.8-1.9,7,1.8,6.7l29.9-1.8l-3.1-5.4
			c-7.5,14.3-16.9,27.4-26.4,40.5l6.7,1.8c-1.3-23.8-3.7-47.6-7.1-71.2C9.7,26,2.7,27.9,3.4,32.5L3.4,32.5z"/>
		<path class="st1" d="M60.7,104c0.9-25.3,0.4-50.5-1.4-75.8l-6.2,2.5c9.8,7.7,19.3,15.8,28.6,24.2l1.6-6
			c-9.2,2.4-18.5,4.5-27.9,6.1c-2.6,0.5-3.6,4.4-1.6,6l28,23.5c3.6,3,8.7-2.1,5.1-5.1L58.9,56l-1.6,6c9.4-1.6,18.7-3.6,27.9-6
			c1.9-0.6,3-2.6,2.5-4.5c-0.2-0.6-0.5-1.1-0.9-1.5c-9.2-8.5-18.7-16.6-28.6-24.3c-2.2-1.7-6.4-0.9-6.2,2.6
			c1.8,25.2,2.3,50.5,1.4,75.7C53.3,108.6,60.5,108.6,60.7,104z"/>
		<path class="st1" d="M97.4,104.4l10.8-73.9h-7l14.5,76.3c0.9,4.6,7.8,2.6,7-1.9l-14.5-76.3c-0.6-3.4-6.5-3.5-7,0l-10.8,73.9
			C89.7,107,96.7,109,97.4,104.4z"/>
		<path class="st1" d="M98,84.5l7.9-7.5l-3.1-1.3c-0.2,2.4-0.1,4.9,0.2,7.3c0,1,0.9,1.8,1.9,1.8c0.4,0,0.9-0.2,1.2-0.5l9-9.2
			c1.6-1.7-0.9-4.2-2.6-2.6l-9,9.2l3.1,1.3c-0.3-2.4-0.4-4.8-0.2-7.3c0.1-1.6-2-2.3-3.1-1.3L95.4,82C93.7,83.6,96.3,86.2,98,84.5
			L98,84.5z"/>
		<path class="st1" d="M122.3,32.1c3.2,23.9,5.6,47.8,7.2,71.9h7.2l-0.1-1.2c-0.6-4.6-7.8-4.6-7.2,0l0.2,1.2c0.6,4.5,7.6,4.7,7.2,0
			c-1.6-24-4-48-7.2-71.9C129,27.5,121.7,27.5,122.3,32.1z"/>
		<path class="st1" d="M122.8,34.2c11,24.6,21.5,49.4,31.5,74.5c1.4,3.4,7.6,3.5,7.1-1c-3.4-28.4-5.7-56.8-6.8-85.4
			c-0.2-4.6-7.4-4.7-7.2,0c1.1,28.5,3.4,57,6.8,85.4l7.1-1c-10.2-25.6-21-50.9-32.3-76.1C127.1,26.3,120.9,30,122.8,34.2L122.8,34.2
			z"/>
		<path class="st1" d="M163.3,22.4l3.6,80.7l7.1-1l-0.5-2.2c-1-4.6-7.9-2.6-7,1.9l0.5,2.3c0.8,4,7.3,3.1,7.1-1l-3.6-80.7
			C170.4,17.7,163.1,17.7,163.3,22.4L163.3,22.4z"/>
		<path class="st1" d="M164,22c8.2,16,17.1,31.5,26.7,46.7v-3.7c-8.9,11.5-16.6,23.9-23,36.9c-2,4.2,4.2,7.8,6.2,3.7
			c6.4-13.1,14-25.4,22.9-36.9c0.7-1.1,0.7-2.5,0-3.7c-9.6-15.2-18.5-30.8-26.7-46.7C168.1,14.2,161.8,17.8,164,22L164,22z"/>
		<path class="st1" d="M65.6,11.9h5.2c1-0.1,1.7-0.9,1.7-1.9c-0.1-0.9-0.8-1.6-1.7-1.7h-5.2c-1,0.1-1.7,0.9-1.7,1.9
			C64,11.1,64.7,11.8,65.6,11.9z"/>
		<path class="st1" d="M114.5,10.3c1.8-0.2,3.6-0.2,5.4-0.1c2.3,0.1,2.3-3.5,0-3.6c-1.8-0.1-3.6-0.1-5.4,0.1c-1,0-1.8,0.8-1.8,1.8
			C112.7,9.5,113.5,10.3,114.5,10.3z"/>
		<path class="st1" d="M29.4,166.7c-0.2-7.1,0.1-14.3,0.9-21.4c0.2-2.2,0.5-4.3,0.9-6.5c0.1-0.9,0.1-3.7,0.8-4.2
			c2.6-2.1,3.6,1.6,3.5,3.2c-0.3,2.9-2.9,5.1-5.8,4.8c-0.1,0-0.3,0-0.4-0.1c-2-0.3-3.6,1.9-2.1,3.5c3.3,3.3,6,7.1,8.2,11.2l0.3-2.6
			l-0.2,0.2l2.1-0.6l-0.3-0.1l1.5,2.6v-0.1c0.9-2.6-3.2-3.7-4.1-1.1l0,0.1c-0.3,1.1,0.4,2.3,1.5,2.6c0.9,0.3,1.9,0,2.5-0.6
			c0.7-0.7,0.8-1.7,0.3-2.6c-2.4-4.4-5.4-8.5-8.9-12.1l-2.1,3.5c5,0.7,10.2-1.8,11.4-7.1c0.9-4-1.7-10.6-6.5-10.8
			c-6.2-0.2-6.1,9.6-6.7,13.6c-1,8-1.5,16.2-1.2,24.3C25.2,169.4,29.4,169.4,29.4,166.7L29.4,166.7z"/>
		<path class="st1" d="M77.7,133.1h15.8c2.7,0,2.7-4.2,0-4.2H77.7C75,128.8,75,133.1,77.7,133.1z"/>
		<path class="st1" d="M83.5,131.1c0.2,10.2,0.1,20.3-0.2,30.5c-0.1,2.9,4.2,2.9,4.2,0c0.3-10.2,0.3-20.3,0.2-30.5
			c0.1-1.2-0.8-2.2-2-2.3s-2.2,0.8-2.3,2C83.5,130.9,83.5,131,83.5,131.1z"/>
		<path class="st1" d="M101.3,131l-0.4,31.6c0,3.2,4.2,3.2,4.2,0l0.4-31.6C105.5,127.8,101.3,127.8,101.3,131z"/>
		<path class="st1" d="M103.5,149.4l13.4-1c2.7-0.2,2.7-4.4,0-4.2l-13.4,1C100.8,145.3,100.7,149.6,103.5,149.4z"/>
		<path class="st1" d="M116.4,130.9v32.8c-0.1,1.2,0.8,2.2,2,2.3s2.2-0.8,2.3-2c0-0.1,0-0.2,0-0.3v-32.8c0.1-1.2-0.8-2.2-2-2.3
			s-2.2,0.8-2.3,2C116.4,130.7,116.4,130.8,116.4,130.9z"/>
		<path class="st1" d="M139.9,126.7l-13.3,14.8c-0.8,0.8-0.8,2.2,0,3c0.2,0.2,0.5,0.4,0.9,0.5c5.2,1.4,10.2,3.4,15,5.7v-3.7l-16,9.4
			c-1,0.6-1.3,2-0.7,3c0.4,0.6,1,1,1.7,1c6.1,0.3,12.2,1.3,18.1,3c2.6,0.8,3.8-3.3,1.1-4.1c-6.3-1.8-12.7-2.9-19.2-3.1l1.1,3.9
			l16-9.4c1-0.6,1.3-1.9,0.7-2.9c-0.2-0.3-0.4-0.5-0.7-0.7c-5.1-2.5-10.5-4.6-16-6.1l0.9,3.5l13.3-14.8
			C144.7,127.8,141.7,124.8,139.9,126.7L139.9,126.7z"/>
		<path class="st1" d="M185.2,125.4c-4.4,4-8.6,8.2-12.7,12.5c-0.8,0.7-0.8,1.9-0.1,2.7c0.1,0.2,0.3,0.3,0.5,0.4
			c5.3,3.1,11.2,5.3,17.3,6.4l-0.9-3.3l-16.8,17.2l3.5,1.9l0.3-0.3c2.4-1.3,0.2-4.7-2.1-3.4c-1.1,0.5-2,1.5-2.3,2.6
			c-0.7,1.8,2.1,3.3,3.5,1.9l16.8-17.2c0.8-0.7,0.8-1.9,0.1-2.7c-0.3-0.3-0.6-0.5-1-0.6c-5.7-1-11.3-3-16.3-6l0.4,3.1
			c4.1-4.3,8.3-8.5,12.7-12.5C190.1,126.4,187.1,123.6,185.2,125.4L185.2,125.4z"/>
		<path class="st1" d="M67.2,146.3l0.2-0.4l-0.2-0.3C67.2,145.9,67.2,146.1,67.2,146.3z"/>
		<path class="st1" d="M73.4,144c-4.6-4.7-9.1-9.6-13.7-14.3c-0.8-0.8-2.1-0.8-2.9,0l0,0c-3.1,2.6-6.1,5.4-8.8,8.5
			c-1.6,1.9-4.6,4.6-4.5,7.3c0.1,3.1,3.5,6.5,5.2,8.9c2.5,3.4,5.2,6.7,8,9.8c0.8,0.8,2.1,0.8,2.9,0L73.4,147
			C74.2,146.2,74.2,144.8,73.4,144z M57.7,148.9c-2.7,0-2.7-4.2,0-4.2S60.4,148.9,57.7,148.9L57.7,148.9z M67.2,146.3
			c0-0.2,0-0.4,0-0.6l0.2,0.3L67.2,146.3z"/>
		<path class="st1" d="M55.8,170.2v7.8c0,2.7,4.2,2.7,4.2,0v-7.7C60,167.6,55.8,167.6,55.8,170.2L55.8,170.2z"/>
		<path class="st1" d="M56.7,115.1v7c0,2.7,4.2,2.7,4.2,0v-7C60.9,112.5,56.7,112.5,56.7,115.1z"/>
		<path class="st1" d="M160,161.8c-1.6-7.2-3.3-14.5-2.9-21.9c0.1-1.2,0.8-11.6,3.8-7.8c1.3,1.7-0.6,6.1-1.4,7.5
			c-1.3,1.9-3,3.5-4.9,4.7c-0.9,0.5-1.2,1.7-0.7,2.6c3.3,4.8,6.5,9.7,9.5,14.7c1.2,2.1,4.5,0.2,3.2-1.9c-3-5-6.2-9.9-9.5-14.7
			l-0.7,2.6c4.4-3,8.2-7.2,8.4-12.9c0.1-3.5-1.4-9-6-8c-4.9,1.1-5.2,8.4-5.4,12.2c-0.5,8,1.3,16.1,3,23.9
			C156.9,165.1,160.5,164.1,160,161.8L160,161.8z"/>
		<path class="st1" d="M5.3,127.1l-1.2,35.8c-0.1,2,2.5,2.3,3.5,0.9l0.4-0.5c0.4-0.6,0.4-1.3,0-1.9l-0.3-0.5
			c-1.1-2.1-4.4-0.2-3.2,1.9l-0.1-0.9l3.5,1l1.2-35.8C9.2,124.7,5.4,124.7,5.3,127.1L5.3,127.1z"/>
		<path class="st1" d="M4.7,127.8c1.8,2.1,4.1,3.5,5.9,5.4c4.4,4.7,0.5,8.7-4,11.1c-1.3,0.7-1.2,3.1,0.4,3.4
			c1.8,0.3,5.5,0.3,6.9,1.2c1.9,0,2.2,1.2,1.1,3.7c-0.7,0.7-1.4,1.5-2.2,2.2C9.1,158.5,5,162,0.8,165.3c-1.9,1.4,0,4.7,1.9,3.2
			c3.5-2.7,6.9-5.5,10.2-8.5c2.3-2.1,5.6-4.5,6.7-7.5c2.6-7.2-7.1-7.5-11.6-8.3l0.4,3.4c4-2.1,8.5-5.1,8.3-10.2
			c-0.3-5.7-6.2-8.3-9.5-12.2C5.8,123.3,3.1,126,4.7,127.8z"/>
	</g>
</g>
</svg>
