<?xml version="1.0" encoding="UTF-8"?>
<svg width="250px" height="250px" viewBox="0 0 250 250" version="1.1" xmlns="http://www.w3.org/2000/svg" xmlns:xlink="http://www.w3.org/1999/xlink">
    <title>Artboard Copy</title>
    <defs>
        <polygon id="path-1" points="0.000575 0.00594266667 44.827575 0.00594266667 44.827575 106 0.000575 106"></polygon>
        <polygon id="path-3" points="0.398415385 0.537333333 18.7948 0.537333333 18.7948 25.3546222 0.398415385 25.3546222"></polygon>
        <polygon id="path-5" points="0 129 45 129 45 0 0 0"></polygon>
        <polygon id="path-7" points="0.5995 0.34051 13.8745 0.34051 13.8745 34 0.5995 34"></polygon>
        <polygon id="path-9" points="0 0.0851666667 34.2576667 0.0851666667 34.2576667 13.9535 0 13.9535"></polygon>
        <polygon id="path-11" points="0 184 137 184 137 0 0 0"></polygon>
    </defs>
    <g id="Artboard-Copy" stroke="none" stroke-width="1" fill="none" fill-rule="evenodd">
        <circle id="Oval-Copy" fill="#260F88" cx="125" cy="126" r="125"></circle>
        <g id="Group-11" transform="translate(37.000000, 60.000000)">
            <g id="Group-3" transform="translate(0.000000, 24.000000)">
                <mask id="mask-2" fill="white">
                    <use xlink:href="#path-1"></use>
                </mask>
                <g id="Clip-2"></g>
                <path d="M30.7645125,0.00594266667 L30.7645125,14.6364093 C30.7645125,19.4414227 31.7736375,23.5773293 34.103825,27.7831427 C35.949575,31.111556 38.399075,34.0547693 40.2247,37.3760493 C41.9080125,40.4391027 42.7992625,43.4579293 42.7992625,46.968956 C42.7992625,54.8470093 43.3800125,62.963316 43.8112625,70.8399427 C44.2453875,78.760796 44.827575,86.914196 44.827575,94.8379027 C44.827575,100.975423 39.767575,106.000143 33.580575,106.000143 L11.247575,106.000143 C5.060575,106.000143 0.000575,100.975423 0.000575,94.8379027 C0.000575,86.9042093 0.5612,78.7579427 0.9795125,70.8271027 C1.39495,62.950476 1.9541375,54.8498627 1.9541375,46.968956 C1.9541375,43.4579293 2.84395,40.4391027 4.5287,37.3760493 C6.354325,34.0547693 8.8052625,31.111556 10.6510125,27.7831427 C12.9812,23.5801827 13.990325,19.4414227 13.990325,14.6364093 L13.990325,0.00594266667 L16.307575,0.00594266667 L16.307575,14.6364093 C16.307575,19.8266227 15.2007,24.349156 12.6822,28.894516 C10.8350125,32.2257827 8.3826375,35.168996 6.5656375,38.477436 C5.0677625,41.203796 4.272825,43.8474093 4.272825,46.968956 C4.272825,54.8926627 3.7136375,63.0289427 3.2967625,70.949796 C2.8798875,78.8364093 2.3192625,86.9470093 2.3192625,94.8379027 C2.3192625,99.7056893 6.33995,103.698929 11.247575,103.698929 L33.580575,103.698929 C38.485325,103.698929 42.50745,99.7056893 42.50745,94.8379027 C42.50745,86.956996 41.9267,78.8406893 41.49545,70.966916 C41.0627625,63.0460627 40.4791375,54.8898093 40.4791375,46.968956 C40.4791375,43.8474093 39.6856375,41.2009427 38.1877625,38.477436 C36.369325,35.168996 33.9183875,32.2257827 32.0712,28.894516 C29.5512625,24.349156 28.4443875,19.8309027 28.4443875,14.6364093 L28.4443875,0.00594266667 L30.7645125,0.00594266667 Z" id="Fill-1" fill="#FF0062" mask="url(#mask-2)"></path>
            </g>
            <g id="Group-6" transform="translate(13.000000, 0.000000)">
                <mask id="mask-4" fill="white">
                    <use xlink:href="#path-3"></use>
                </mask>
                <g id="Clip-5"></g>
                <path d="M10.3500308,25.3546222 L0.398415385,25.3546222 L0.398415385,0.536177778 L18.7948,0.536177778 L18.7948,25.3546222 L10.3500308,25.3546222 Z M2.75733846,23.0261778 L16.4373385,23.0261778 L16.4373385,2.8704 L2.75733846,2.8704 L2.75733846,23.0261778 Z" id="Fill-4" fill="#DB6BBF" mask="url(#mask-4)"></path>
            </g>
            <mask id="mask-6" fill="white">
                <use xlink:href="#path-5"></use>
            </mask>
            <g id="Clip-8"></g>
            <polygon id="Fill-7" fill="#FF0095" mask="url(#mask-6)" points="21 71 23 71 23 25 21 25"></polygon>
            <path d="M22.5,80.3288945 C27.5637563,80.3288945 31.6696608,84.4376884 31.6696608,89.5014447 C31.6696608,94.565201 27.5637563,98.6696608 22.5,98.6696608 C17.4362437,98.6696608 13.3288945,94.565201 13.3288945,89.5014447 C13.3288945,84.4376884 17.4362437,80.3288945 22.5,80.3288945 M22.5,78 C28.8524497,78 34,83.1475503 34,89.5014447 C34,95.8524497 28.8524497,101 22.5,101 C16.148995,101 11,95.8524497 11,89.5014447 C11,83.1475503 16.148995,78 22.5,78" id="Fill-9" fill="#FFB0D0" mask="url(#mask-6)"></path>
            <path d="M22,108.671584 C32.3136855,108.671584 40.6742811,100.312984 40.6742811,90.0014276 C40.6742811,79.6870156 32.3136855,71.3298436 22,71.3298436 C11.6863145,71.3298436 3.32571895,79.6870156 3.32571895,90.0014276 C3.32571895,100.312984 11.6863145,108.671584 22,108.671584 M22,111 C33.5986131,111 43,101.597825 43,90.0014276 C43,78.4021754 33.5986131,69 22,69 C10.4013869,69 1,78.4021754 1,90.0014276 C1,101.597825 10.4013869,111 22,111" id="Fill-10" fill="#DB6BBF" mask="url(#mask-6)"></path>
        </g>
        <g id="Group-27" transform="translate(73.000000, 33.000000)">
            <path d="M60.826297,137.406236 C51.7237565,137.406236 42.6195568,137.412875 33.5170163,137.402917 C33.5319494,148.809451 33.565134,160.220964 33.5800671,171.627498 L33.5817263,172.968467 L30.9037277,172.973446 L30.9020685,171.630818 C30.8871354,159.774528 30.8522916,147.918238 30.8356993,136.060288 L30.83404,134.71766 L32.1763578,134.720979 C42.1234468,134.734256 52.0688765,134.729277 62.012647,134.729277 L63.2023155,134.729277 L66.3797426,161.218393 C66.6999742,163.893692 68.5035581,166.396392 71.4254637,166.401371 L105,167.216242 L104.933631,169.898179 L71.3939383,169.07667 C67.1214188,169.07501 64.2061502,165.576542 63.7199956,161.535379 L60.826297,137.406236 Z M59.3545592,124.726777 L59.3545592,124.726777 L23.5035581,124.676989 C20.7492349,124.67367 18.486044,126.927427 18.4827256,129.685707 C18.4628148,143.679581 18.0430294,157.670136 17.7078648,171.66235 L17.6763394,173 L15,172.938594 L15.0315254,171.599285 C15.36669,157.628645 15.7848162,143.656346 15.804727,129.682388 C15.8130231,125.450369 19.2758379,121.991732 23.5085358,122.000015 L58.1516168,122.046499 L79.1292725,122.046499 L79.1292725,123.389128 C79.1292725,132.709526 79.1209764,142.033243 79.1077025,151.353641 C87.2810737,151.335385 95.4544449,151.312151 103.627816,151.300533 L104.965156,151.297214 L104.971793,153.977492 L103.631135,153.977492 C95.0114303,153.992429 86.391726,154.018983 77.7720217,154.035579 L76.4280447,154.038898 L76.4297039,152.69295 C76.4429778,143.370893 76.4529332,134.048835 76.4529332,124.726777 L59.3545592,124.726777 Z" id="Fill-1" fill="#E69BEB"></path>
            <g id="Group-5" transform="translate(102.000000, 150.000000)">
                <mask id="mask-8" fill="white">
                    <use xlink:href="#path-7"></use>
                </mask>
                <g id="Clip-4"></g>
                <path d="M3.28783333,8.65351 L3.28783333,16.65711 L6.27116667,16.73191 L6.27116667,28.74921 C6.27116667,30.12791 7.3795,31.25841 8.72783333,31.25841 C10.0778333,31.25841 11.1861667,30.12791 11.1861667,28.74921 L11.1861667,3.08771 C8.55283333,3.08771 5.92116667,3.09111 3.28783333,3.09451 L3.28783333,8.65351 Z M3.58116667,19.40771 L0.5995,19.33121 L0.5995,0.35751 L1.94116667,0.35241 C5.47116667,0.34561 8.9995,0.34051 12.5311667,0.34051 L13.8745,0.34051 L13.8745,28.74921 C13.8745,31.64261 11.5611667,34.00051 8.72783333,34.00051 C5.8945,34.00051 3.58116667,31.64261 3.58116667,28.74921 L3.58116667,19.40771 Z" id="Fill-3" fill="#DB6BBF" mask="url(#mask-8)"></path>
            </g>
            <g id="Group-8" transform="translate(0.000000, 170.000000)">
                <mask id="mask-10" fill="white">
                    <use xlink:href="#path-9"></use>
                </mask>
                <g id="Clip-7"></g>
                <path d="M27.6976667,2.7735 L18.2726667,2.7735 L18.191,6.3485 L5.14433333,6.3485 C3.79766667,6.3485 2.68766667,7.4585 2.68766667,8.80683333 C2.68766667,10.1535 3.79766667,11.2651667 5.14433333,11.2651667 L31.566,11.2651667 C31.566,8.4335 31.5643333,5.60516667 31.5593333,2.7735 L27.6976667,2.7735 Z M15.561,3.6585 L15.6426667,0.0851666667 L34.246,0.0851666667 L34.2476667,1.42516667 C34.2526667,5.15516667 34.2576667,8.8835 34.2576667,12.6085 L34.2576667,13.9535 L5.14433333,13.9535 C2.311,13.9535 -0.000666666667,11.6418333 -0.000666666667,8.80683333 C-0.000666666667,5.9735 2.311,3.6585 5.14433333,3.6585 L15.561,3.6585 Z" id="Fill-6" fill="#DB6BBF" mask="url(#mask-10)"></path>
            </g>
            <path d="M15.6983016,30.5874499 L15.6983016,60.7042724 C15.6983016,70.3204272 23.511001,78.1725634 33.0731343,78.1725634 L44.6286927,78.1725634 L44.6286927,122.30474 L76.9799408,122.30474 L76.9799408,78.1725634 L103.926866,78.1725634 C113.487339,78.1725634 121.301698,70.3170895 121.301698,60.7042724 L121.301698,49.8681575 C121.301698,47.7670227 123.026235,46.0330441 125.115929,46.0330441 L130.321076,46.0330441 L130.321076,39.6895861 L125.115929,39.6895861 C119.542306,39.6895861 114.992782,44.2623498 114.992782,49.8681575 L114.992782,60.7042724 C114.992782,66.8157543 110.005069,71.8291055 103.926866,71.8291055 L33.0731343,71.8291055 C26.9949305,71.8291055 22.0072182,66.8157543 22.0072182,60.7042724 L22.0072182,22.8738318 C22.0072182,17.2696929 17.4576943,12.6952603 11.884071,12.6952603 L6.67892434,12.6952603 L6.67892434,19.0387183 L11.884071,19.0387183 C13.9754246,19.0387183 15.6983016,20.7693591 15.6983016,22.8738318 L15.6983016,30.5874499 Z M79.6572054,80.864486 L79.6572054,125 L41.9497684,125 L41.9497684,80.864486 L33.0731343,80.864486 C22.0321153,80.864486 13.0193773,71.805741 13.0193773,60.7042724 L13.0193773,22.8738318 C13.0193773,22.2596796 12.4948791,21.7306409 11.884071,21.7306409 L4,21.7306409 L4,10 L11.884071,10 C18.93658,10 24.6878024,15.7827103 24.6878024,22.8738318 L24.6878024,60.7042724 C24.6878024,65.3287717 28.4721565,69.1371829 33.0731343,69.1371829 L103.926866,69.1371829 C108.527844,69.1371829 112.313857,65.3287717 112.313857,60.7042724 L112.313857,49.8681575 C112.313857,42.777036 118.06342,36.9976636 125.115929,36.9976636 L133,36.9976636 L133,48.7249666 L125.115929,48.7249666 C124.505121,48.7249666 123.980623,49.2540053 123.980623,49.8681575 L123.980623,60.7042724 C123.980623,71.8024032 114.966225,80.864486 103.926866,80.864486 L79.6572054,80.864486 Z" id="Fill-9" fill="#FF00CC"></path>
            <path d="M77.8220545,15.3161897 C67.309234,18.1514566 56.7980769,20.9867234 46.2869198,23.8270173 L49.871592,37.3012374 L47.2783187,38 L43,21.9167311 L44.2958049,21.5648363 C55.6719409,18.4949729 67.0480769,15.4217582 78.4242129,12.3518948 L79.7200179,12 L84,28.088296 L81.4083901,28.7904099 L77.8220545,15.3161897 Z" id="Fill-11" fill="#F092B7"></path>
            <path d="M55.5924765,47.4968763 L56.6757257,51.5644551 C58.5327243,58.5386442 65.7227699,62.7167915 72.6482431,60.85053 C79.5753803,58.9792427 83.7270035,51.7403595 81.8700049,44.7678458 L80.7900837,40.6985916 L83.3808962,40 L84.4658094,44.0675789 C86.7038588,52.4825084 81.7019432,61.2056893 73.3437856,63.4622909 C64.985628,65.715542 56.3212985,60.6779762 54.0815852,52.264722 L53,48.1954678 L55.5924765,47.4968763 Z" id="Fill-13" fill="#E69BEB"></path>
            <path d="M82.8550705,29 C84.1777958,30.2108122 85.1826058,31.8024041 85.6751275,33.66789 C87.0357391,38.8201048 83.9966006,44.1610394 78.9132501,45.5388602 L60.0343522,50.6693639 C54.952649,52.052195 49.6864561,48.9692165 48.3241973,43.8153316 C47.8316757,41.9498457 47.9173316,40.0626487 48.465859,38.3424603 L51.8229129,37.4305934 C50.762097,39.0505767 50.360173,41.1064523 50.8922282,43.1189058 C51.8756242,46.8365169 55.6807245,49.0627413 59.3458103,48.0657001 L78.2263554,42.9385365 C81.8914412,41.9431654 84.0904926,38.0802568 83.1087438,34.3676559 C82.5750414,32.3552025 81.2144298,30.7786414 79.4980166,29.915207 L82.8550705,29 Z" id="Fill-15" fill="#FF637A"></path>
            <path d="M72.8523714,34.0850333 C74.1878156,33.7295895 75.5572642,34.5208383 75.91431,35.8545252 C76.2713558,37.1866667 75.4799815,38.5558979 74.1476286,38.9144325 C72.8137301,39.2714217 71.4442815,38.4786276 71.08569,37.1464861 C70.7286442,35.8143446 71.5200185,34.4404771 72.8523714,34.0850333" id="Fill-17" fill="#E69BEB"></path>
            <polygon id="Fill-19" fill="#F092B7" points="38 39.4001572 91.309179 25 92 27.6048522 38.6924776 42"></polygon>
            <path d="M58.853081,38.0869646 C60.1855641,37.7268146 61.5566922,38.5182172 61.9137729,39.8521633 C62.2723994,41.1845637 61.479402,42.5571525 60.146919,42.914211 C58.8128901,43.2712696 57.441762,42.4814128 57.0862271,41.145921 C56.7276006,39.8119749 57.520598,38.4424775 58.853081,38.0869646" id="Fill-21" fill="#E69BEB"></path>
            <mask id="mask-12" fill="white">
                <use xlink:href="#path-11"></use>
            </mask>
            <g id="Clip-24"></g>
            <polygon id="Fill-23" fill="#FF637A" mask="url(#mask-12)" points="126 37 129 37 129 20 126 20"></polygon>
            <path d="M119.610594,10.5016985 C119.610594,14.7852637 122.918318,18.2603526 127.000809,18.2603526 C131.081682,18.2603526 134.391023,14.7852637 134.391023,10.5016985 C134.391023,6.21473633 131.081682,2.73964736 127.000809,2.73964736 C122.918318,2.73964736 119.610594,6.21473633 119.610594,10.5016985 M117,10.5016985 C117,16.3020058 121.478771,21 127.000809,21 C132.524464,21 137,16.3020058 137,10.5016985 C137,4.70139114 132.524464,0 127.000809,0 C121.478771,0 117,4.70139114 117,10.5016985" id="Fill-25" fill="#E69BEB" mask="url(#mask-12)"></path>
            <path d="M76.7735487,50.8152141 C77.7162224,54.2809802 75.6299238,57.8482542 72.1108267,58.7763255 C68.5949971,59.7076192 64.9795087,57.6452386 64.0384688,54.1794724 C63.8783613,53.5945942 64.232885,52.9903811 64.8259362,52.8308689 C65.4189874,52.6778015 66.0316436,53.0274395 66.1901173,53.6090953 C66.8142097,55.9067162 69.2060195,57.2698209 71.534113,56.6543292 C73.8622065,56.0388374 75.2443589,53.6799896 74.6202664,51.3823687 C74.4617927,50.7958792 74.8163164,50.1916662 75.4093676,50.0385989 C76.0007851,49.8790866 76.6134412,50.2287246 76.7735487,50.8152141" id="Fill-26" fill="#FF0062" mask="url(#mask-12)"></path>
        </g>
    </g>
</svg>