<?xml version="1.0" encoding="utf-8"?>
<!-- Generator: Adobe Illustrator 25.1.0, SVG Export Plug-In . SVG Version: 6.00 Build 0)  -->
<svg version="1.1" id="Capa_1" xmlns="http://www.w3.org/2000/svg" xmlns:xlink="http://www.w3.org/1999/xlink" x="0px" y="0px"
	 viewBox="0 0 250 250" style="enable-background:new 0 0 250 250;" xml:space="preserve">
<style type="text/css">
	.st0{fill-rule:evenodd;clip-rule:evenodd;}
	.st1{filter:url(#Adobe_OpacityMaskFilter);}
	.st2{fill-rule:evenodd;clip-rule:evenodd;fill:#FFFFFF;}
	.st3{mask:url(#mask-2_1_);fill-rule:evenodd;clip-rule:evenodd;fill:#FF0062;}
	.st4{filter:url(#Adobe_OpacityMaskFilter_1_);}
	.st5{mask:url(#mask-4_1_);fill-rule:evenodd;clip-rule:evenodd;fill:#DB6BBF;}
	.st6{filter:url(#Adobe_OpacityMaskFilter_2_);}
	.st7{mask:url(#mask-6_1_);fill-rule:evenodd;clip-rule:evenodd;fill:#FF0095;}
	.st8{filter:url(#Adobe_OpacityMaskFilter_3_);}
	.st9{mask:url(#mask-6_2_);fill-rule:evenodd;clip-rule:evenodd;fill:#FFB0D0;}
	.st10{filter:url(#Adobe_OpacityMaskFilter_4_);}
	.st11{mask:url(#mask-6_3_);fill-rule:evenodd;clip-rule:evenodd;fill:#DB6BBF;}
	.st12{fill-rule:evenodd;clip-rule:evenodd;fill:#E69BEB;}
	.st13{filter:url(#Adobe_OpacityMaskFilter_5_);}
	.st14{mask:url(#mask-8_1_);fill-rule:evenodd;clip-rule:evenodd;fill:#DB6BBF;}
	.st15{filter:url(#Adobe_OpacityMaskFilter_6_);}
	.st16{mask:url(#mask-10_1_);fill-rule:evenodd;clip-rule:evenodd;fill:#DB6BBF;}
	.st17{fill-rule:evenodd;clip-rule:evenodd;fill:#FF00CC;}
	.st18{fill-rule:evenodd;clip-rule:evenodd;fill:#F092B7;}
	.st19{fill-rule:evenodd;clip-rule:evenodd;fill:#FF637A;}
	.st20{filter:url(#Adobe_OpacityMaskFilter_7_);}
	.st21{mask:url(#mask-12_1_);fill-rule:evenodd;clip-rule:evenodd;fill:#FF637A;}
	.st22{filter:url(#Adobe_OpacityMaskFilter_8_);}
	.st23{mask:url(#mask-12_2_);fill-rule:evenodd;clip-rule:evenodd;fill:#E69BEB;}
	.st24{filter:url(#Adobe_OpacityMaskFilter_9_);}
	.st25{mask:url(#mask-12_3_);fill-rule:evenodd;clip-rule:evenodd;fill:#FF0062;}
</style>
<g id="Artboard-Copy">
	<circle id="Oval-Copy" class="st0" cx="125" cy="126" r="125"/>
	<g id="Group-11" transform="translate(37.000000, 60.000000)">
		<g id="Group-3" transform="translate(0.000000, 24.000000)">
			<g id="Clip-2">
			</g>
			<defs>
				<filter id="Adobe_OpacityMaskFilter" filterUnits="userSpaceOnUse" x="0" y="0" width="44.8" height="106">
					<feColorMatrix  type="matrix" values="1 0 0 0 0  0 1 0 0 0  0 0 1 0 0  0 0 0 1 0"/>
				</filter>
			</defs>
			<mask maskUnits="userSpaceOnUse" x="0" y="0" width="44.8" height="106" id="mask-2_1_">
				<g class="st1">
					<polygon id="path-1_1_" class="st2" points="0,0 44.8,0 44.8,106 0,106 					"/>
				</g>
			</mask>
			<path id="Fill-1" class="st3" d="M30.8,0v14.6c0,4.8,1,8.9,3.3,13.1c1.8,3.3,4.3,6.3,6.1,9.6c1.7,3.1,2.6,6.1,2.6,9.6
				c0,7.9,0.6,16,1,23.9c0.4,7.9,1,16.1,1,24c0,6.1-5.1,11.2-11.2,11.2H11.2C5.1,106,0,101,0,94.8c0-7.9,0.6-16.1,1-24
				C1.4,63,2,54.8,2,47c0-3.5,0.9-6.5,2.6-9.6c1.8-3.3,4.3-6.3,6.1-9.6C13,23.6,14,19.4,14,14.6V0h2.3v14.6c0,5.2-1.1,9.7-3.6,14.3
				c-1.8,3.3-4.3,6.3-6.1,9.6c-1.5,2.7-2.3,5.4-2.3,8.5c0,7.9-0.6,16.1-1,24c-0.4,7.9-1,16-1,23.9c0,4.9,4,8.9,8.9,8.9h22.3
				c4.9,0,8.9-4,8.9-8.9c0-7.9-0.6-16-1-23.9c-0.4-7.9-1-16.1-1-24c0-3.1-0.8-5.8-2.3-8.5c-1.8-3.3-4.3-6.3-6.1-9.6
				c-2.5-4.5-3.6-9.1-3.6-14.3V0H30.8z"/>
		</g>
		<g id="Group-6" transform="translate(13.000000, 0.000000)">
			<g id="Clip-5">
			</g>
			<defs>
				<filter id="Adobe_OpacityMaskFilter_1_" filterUnits="userSpaceOnUse" x="0.4" y="0.5" width="18.4" height="24.8">
					<feColorMatrix  type="matrix" values="1 0 0 0 0  0 1 0 0 0  0 0 1 0 0  0 0 0 1 0"/>
				</filter>
			</defs>
			<mask maskUnits="userSpaceOnUse" x="0.4" y="0.5" width="18.4" height="24.8" id="mask-4_1_">
				<g class="st4">
					<polygon id="path-3_1_" class="st2" points="0.4,0.5 18.8,0.5 18.8,25.4 0.4,25.4 					"/>
				</g>
			</mask>
			<path id="Fill-4" class="st5" d="M10.4,25.4h-10V0.5h18.4v24.8H10.4z M2.8,23h13.7V2.9H2.8V23z"/>
		</g>
		<g id="Clip-8">
		</g>
		<defs>
			<filter id="Adobe_OpacityMaskFilter_2_" filterUnits="userSpaceOnUse" x="21" y="25" width="2" height="46">
				<feColorMatrix  type="matrix" values="1 0 0 0 0  0 1 0 0 0  0 0 1 0 0  0 0 0 1 0"/>
			</filter>
		</defs>
		<mask maskUnits="userSpaceOnUse" x="21" y="25" width="2" height="46" id="mask-6_1_">
			<g class="st6">
				<polygon id="path-5_1_" class="st2" points="0,129 45,129 45,0 0,0 				"/>
			</g>
		</mask>
		<polygon id="Fill-7" class="st7" points="21,71 23,71 23,25 21,25 		"/>
		<defs>
			<filter id="Adobe_OpacityMaskFilter_3_" filterUnits="userSpaceOnUse" x="11" y="78" width="23" height="23">
				<feColorMatrix  type="matrix" values="1 0 0 0 0  0 1 0 0 0  0 0 1 0 0  0 0 0 1 0"/>
			</filter>
		</defs>
		<mask maskUnits="userSpaceOnUse" x="11" y="78" width="23" height="23" id="mask-6_2_">
			<g class="st8">
				<polygon id="path-5_2_" class="st2" points="0,129 45,129 45,0 0,0 				"/>
			</g>
		</mask>
		<path id="Fill-9" class="st9" d="M22.5,80.3c5.1,0,9.2,4.1,9.2,9.2c0,5.1-4.1,9.2-9.2,9.2s-9.2-4.1-9.2-9.2
			C13.3,84.4,17.4,80.3,22.5,80.3 M22.5,78C28.9,78,34,83.1,34,89.5c0,6.4-5.1,11.5-11.5,11.5C16.1,101,11,95.9,11,89.5
			C11,83.1,16.1,78,22.5,78"/>
		<defs>
			<filter id="Adobe_OpacityMaskFilter_4_" filterUnits="userSpaceOnUse" x="1" y="69" width="42" height="42">
				<feColorMatrix  type="matrix" values="1 0 0 0 0  0 1 0 0 0  0 0 1 0 0  0 0 0 1 0"/>
			</filter>
		</defs>
		<mask maskUnits="userSpaceOnUse" x="1" y="69" width="42" height="42" id="mask-6_3_">
			<g class="st10">
				<polygon id="path-5_3_" class="st2" points="0,129 45,129 45,0 0,0 				"/>
			</g>
		</mask>
		<path id="Fill-10" class="st11" d="M22,108.7c10.3,0,18.7-8.4,18.7-18.7c0-10.3-8.4-18.7-18.7-18.7S3.3,79.7,3.3,90
			C3.3,100.3,11.7,108.7,22,108.7 M22,111c11.6,0,21-9.4,21-21c0-11.6-9.4-21-21-21S1,78.4,1,90C1,101.6,10.4,111,22,111"/>
	</g>
	<g id="Group-27" transform="translate(73.000000, 33.000000)">
		<path id="Fill-1_1_" class="st12" d="M60.8,137.4c-9.1,0-18.2,0-27.3,0c0,11.4,0,22.8,0.1,34.2l0,1.3l-2.7,0l0-1.3
			c0-11.9,0-23.7-0.1-35.6l0-1.3l1.3,0c9.9,0,19.9,0,29.8,0h1.2l3.2,26.5c0.3,2.7,2.1,5.2,5,5.2l33.6,0.8l-0.1,2.7l-33.5-0.8
			c-4.3,0-7.2-3.5-7.7-7.5L60.8,137.4z M59.4,124.7L59.4,124.7l-35.9,0c-2.8,0-5,2.3-5,5c0,14-0.4,28-0.8,42l0,1.3l-2.7-0.1l0-1.3
			c0.3-14,0.8-27.9,0.8-41.9c0-4.2,3.5-7.7,7.7-7.7l34.6,0h21v1.3c0,9.3,0,18.6,0,28c8.2,0,16.3,0,24.5-0.1l1.3,0l0,2.7h-1.3
			c-8.6,0-17.2,0-25.9,0.1l-1.3,0l0-1.3c0-9.3,0-18.6,0-28H59.4z"/>
		<g id="Group-5" transform="translate(102.000000, 150.000000)">
			<g id="Clip-4">
			</g>
			<defs>
				<filter id="Adobe_OpacityMaskFilter_5_" filterUnits="userSpaceOnUse" x="0.6" y="0.3" width="13.3" height="33.7">
					<feColorMatrix  type="matrix" values="1 0 0 0 0  0 1 0 0 0  0 0 1 0 0  0 0 0 1 0"/>
				</filter>
			</defs>
			<mask maskUnits="userSpaceOnUse" x="0.6" y="0.3" width="13.3" height="33.7" id="mask-8_1_">
				<g class="st13">
					<polygon id="path-7_1_" class="st2" points="0.6,0.3 13.9,0.3 13.9,34 0.6,34 					"/>
				</g>
			</mask>
			<path id="Fill-3" class="st14" d="M3.3,8.7v8l3,0.1v12c0,1.4,1.1,2.5,2.5,2.5c1.3,0,2.5-1.1,2.5-2.5V3.1c-2.6,0-5.3,0-7.9,0V8.7z
				 M3.6,19.4l-3-0.1v-19l1.3,0c3.5,0,7.1,0,10.6,0h1.3v28.4c0,2.9-2.3,5.3-5.1,5.3s-5.1-2.4-5.1-5.3V19.4z"/>
		</g>
		<g id="Group-8" transform="translate(0.000000, 170.000000)">
			<g id="Clip-7">
			</g>
			<defs>
				<filter id="Adobe_OpacityMaskFilter_6_" filterUnits="userSpaceOnUse" x="0" y="0.1" width="34.3" height="13.9">
					<feColorMatrix  type="matrix" values="1 0 0 0 0  0 1 0 0 0  0 0 1 0 0  0 0 0 1 0"/>
				</filter>
			</defs>
			<mask maskUnits="userSpaceOnUse" x="0" y="0.1" width="34.3" height="13.9" id="mask-10_1_">
				<g class="st15">
					<polygon id="path-9_1_" class="st2" points="0,0.1 34.3,0.1 34.3,14 0,14 					"/>
				</g>
			</mask>
			<path id="Fill-6" class="st16" d="M27.7,2.8h-9.4l-0.1,3.6h-13c-1.3,0-2.5,1.1-2.5,2.5c0,1.3,1.1,2.5,2.5,2.5h26.4
				c0-2.8,0-5.7,0-8.5H27.7z M15.6,3.7l0.1-3.6h18.6l0,1.3c0,3.7,0,7.5,0,11.2V14H5.1C2.3,14,0,11.6,0,8.8C0,6,2.3,3.7,5.1,3.7H15.6
				z"/>
		</g>
		<path id="Fill-9_1_" class="st17" d="M15.7,30.6v30.1c0,9.6,7.8,17.5,17.4,17.5h11.6v44.1H77V78.2h26.9c9.6,0,17.4-7.9,17.4-17.5
			V49.9c0-2.1,1.7-3.8,3.8-3.8h5.2v-6.3h-5.2c-5.6,0-10.1,4.6-10.1,10.2v10.8c0,6.1-5,11.1-11.1,11.1H33.1c-6.1,0-11.1-5-11.1-11.1
			V22.9c0-5.6-4.5-10.2-10.1-10.2H6.7V19h5.2c2.1,0,3.8,1.7,3.8,3.8V30.6z M79.7,80.9V125H41.9V80.9h-8.9C22,80.9,13,71.8,13,60.7
			V22.9c0-0.6-0.5-1.1-1.1-1.1H4V10h7.9c7.1,0,12.8,5.8,12.8,12.9v37.8c0,4.6,3.8,8.4,8.4,8.4h70.9c4.6,0,8.4-3.8,8.4-8.4V49.9
			c0-7.1,5.7-12.9,12.8-12.9h7.9v11.7h-7.9c-0.6,0-1.1,0.5-1.1,1.1v10.8c0,11.1-9,20.2-20.1,20.2H79.7z"/>
		<path id="Fill-11" class="st18" d="M77.8,15.3c-10.5,2.8-21,5.7-31.5,8.5l3.6,13.5L47.3,38L43,21.9l1.3-0.4
			c11.4-3.1,22.8-6.1,34.1-9.2l1.3-0.4L84,28.1l-2.6,0.7L77.8,15.3z"/>
		<path id="Fill-13" class="st12" d="M55.6,47.5l1.1,4.1c1.9,7,9,11.2,16,9.3c6.9-1.9,11.1-9.1,9.2-16.1l-1.1-4.1l2.6-0.7l1.1,4.1
			c2.2,8.4-2.8,17.1-11.1,19.4c-8.4,2.3-17-2.8-19.3-11.2L53,48.2L55.6,47.5z"/>
		<path id="Fill-15" class="st19" d="M82.9,29c1.3,1.2,2.3,2.8,2.8,4.7c1.4,5.2-1.7,10.5-6.8,11.9L60,50.7
			C55,52.1,49.7,49,48.3,43.8c-0.5-1.9-0.4-3.8,0.1-5.5l3.4-0.9c-1.1,1.6-1.5,3.7-0.9,5.7c1,3.7,4.8,5.9,8.5,4.9l18.9-5.1
			c3.7-1,5.9-4.9,4.9-8.6c-0.5-2-1.9-3.6-3.6-4.5L82.9,29z"/>
		<path id="Fill-17" class="st12" d="M72.9,34.1c1.3-0.4,2.7,0.4,3.1,1.8c0.4,1.3-0.4,2.7-1.8,3.1c-1.3,0.4-2.7-0.4-3.1-1.8
			C70.7,35.8,71.5,34.4,72.9,34.1"/>
		<polygon id="Fill-19" class="st18" points="38,39.4 91.3,25 92,27.6 38.7,42 		"/>
		<path id="Fill-21" class="st12" d="M58.9,38.1c1.3-0.4,2.7,0.4,3.1,1.8c0.4,1.3-0.4,2.7-1.8,3.1c-1.3,0.4-2.7-0.4-3.1-1.8
			C56.7,39.8,57.5,38.4,58.9,38.1"/>
		<g id="Clip-24">
		</g>
		<defs>
			<filter id="Adobe_OpacityMaskFilter_7_" filterUnits="userSpaceOnUse" x="126" y="20" width="3" height="17">
				<feColorMatrix  type="matrix" values="1 0 0 0 0  0 1 0 0 0  0 0 1 0 0  0 0 0 1 0"/>
			</filter>
		</defs>
		<mask maskUnits="userSpaceOnUse" x="126" y="20" width="3" height="17" id="mask-12_1_">
			<g class="st20">
				<polygon id="path-11_1_" class="st2" points="0,184 137,184 137,0 0,0 				"/>
			</g>
		</mask>
		<polygon id="Fill-23" class="st21" points="126,37 129,37 129,20 126,20 		"/>
		<defs>
			<filter id="Adobe_OpacityMaskFilter_8_" filterUnits="userSpaceOnUse" x="117" y="0" width="20" height="21">
				<feColorMatrix  type="matrix" values="1 0 0 0 0  0 1 0 0 0  0 0 1 0 0  0 0 0 1 0"/>
			</filter>
		</defs>
		<mask maskUnits="userSpaceOnUse" x="117" y="0" width="20" height="21" id="mask-12_2_">
			<g class="st22">
				<polygon id="path-11_2_" class="st2" points="0,184 137,184 137,0 0,0 				"/>
			</g>
		</mask>
		<path id="Fill-25" class="st23" d="M119.6,10.5c0,4.3,3.3,7.8,7.4,7.8c4.1,0,7.4-3.5,7.4-7.8c0-4.3-3.3-7.8-7.4-7.8
			C122.9,2.7,119.6,6.2,119.6,10.5 M117,10.5c0,5.8,4.5,10.5,10,10.5c5.5,0,10-4.7,10-10.5S132.5,0,127,0C121.5,0,117,4.7,117,10.5"
			/>
		<defs>
			<filter id="Adobe_OpacityMaskFilter_9_" filterUnits="userSpaceOnUse" x="64" y="50" width="13" height="9">
				<feColorMatrix  type="matrix" values="1 0 0 0 0  0 1 0 0 0  0 0 1 0 0  0 0 0 1 0"/>
			</filter>
		</defs>
		<mask maskUnits="userSpaceOnUse" x="64" y="50" width="13" height="9" id="mask-12_3_">
			<g class="st24">
				<polygon id="path-11_3_" class="st2" points="0,184 137,184 137,0 0,0 				"/>
			</g>
		</mask>
		<path id="Fill-26" class="st25" d="M76.8,50.8c0.9,3.5-1.1,7-4.7,8c-3.5,0.9-7.1-1.1-8.1-4.6c-0.2-0.6,0.2-1.2,0.8-1.3
			c0.6-0.2,1.2,0.2,1.4,0.8c0.6,2.3,3,3.7,5.3,3c2.3-0.6,3.7-3,3.1-5.3c-0.2-0.6,0.2-1.2,0.8-1.3C76,49.9,76.6,50.2,76.8,50.8"/>
	</g>
</g>
</svg>
