<?xml version="1.0" encoding="utf-8"?>
<!-- Generator: Adobe Illustrator 25.1.0, SVG Export Plug-In . SVG Version: 6.00 Build 0)  -->
<svg version="1.1" id="Capa_1" xmlns="http://www.w3.org/2000/svg" xmlns:xlink="http://www.w3.org/1999/xlink" x="0px" y="0px"
	 viewBox="0 0 250 250" style="enable-background:new 0 0 250 250;" xml:space="preserve">
<style type="text/css">
	.st0{fill-rule:evenodd;clip-rule:evenodd;}
	.st1{fill-rule:evenodd;clip-rule:evenodd;fill:#FF00CC;}
	.st2{fill-rule:evenodd;clip-rule:evenodd;fill:#E69BEB;}
	.st3{fill-rule:evenodd;clip-rule:evenodd;fill:#FF69AA;}
	.st4{fill-rule:evenodd;clip-rule:evenodd;fill:#FF637A;}
	.st5{fill-rule:evenodd;clip-rule:evenodd;fill:#A30062;}
	.st6{fill-rule:evenodd;clip-rule:evenodd;fill:#DB6BBF;}
	.st7{fill-rule:evenodd;clip-rule:evenodd;fill:#F092B7;}
	.st8{fill-rule:evenodd;clip-rule:evenodd;fill:#FF2B59;}
	.st9{fill-rule:evenodd;clip-rule:evenodd;fill:#FF8295;}
	.st10{fill-rule:evenodd;clip-rule:evenodd;fill:#C77EB5;}
</style>
<g id="Artboard">
	<circle id="Oval" class="st0" cx="125" cy="126" r="125"/>
	<g id="Group-79" transform="translate(17.000000, 66.000000)">
		<path id="Fill-1" class="st1" d="M63,77.9v2.6c0,4.1-3.4,7.5-7.5,7.5c-4.1,0-7.5-3.4-7.5-7.5c0-4.1,3.4-7.5,7.5-7.5H63V77.9z
			 M60,76h-4.5C53,76,51,78,51,80.5c0,2.5,2,4.5,4.5,4.5c2.5,0,4.5-2,4.5-4.5V76z"/>
		<polygon id="Fill-3" class="st1" points="63.9,73.1 122,73.1 122,76 61,76 61,43 63.9,43 		"/>
		<path id="Fill-5" class="st2" d="M66.1,67.2H33.2c-6.9,0-12.7,5.7-12.7,12.6c0,6.9,5.7,12.6,12.7,12.6h43.1v2.9H33.2
			c-8.5,0-15.6-7-15.6-15.5c0-8.5,7-15.5,15.6-15.5h48.6c3,0,5.4-2.4,5.4-5.4V45.1h4.6c1,0,1.4-1.2,1.1-2.1l-8.9-22.2
			C80.3,12.4,71.8,6.9,62.4,6.9c-13.1,0-23.8,10.6-23.8,23.7c0,6.2,2.4,12.1,6.8,16.5l2.4,2.5H33.2c-16.7,0-30.3,13.6-30.3,30.2
			c0,16.6,13.6,30.2,30.3,30.2h43.1v2.9H33.2C14.9,113,0,98.1,0,79.9c0-18.2,14.9-33.1,33.2-33.1h7.9c-3.5-4.6-5.4-10.2-5.4-16.1
			C35.7,15.9,47.7,4,62.4,4c10.5,0,20,6.1,24.3,15.7l0,0.1L95.7,42c1.1,2.7-0.7,6-3.8,6h-1.7v11c0,4.5-3.7,8.3-8.3,8.3H66.1z"/>
		<path id="Fill-7" class="st3" d="M71.9,98.2V110h7c4,0,7.2-3.3,7.2-7.4v-3.6l14.5,0c2.5,0,4.6-1.7,5.3-4.1h-34V98.2z M89,102v0.6
			c0,5.7-4.5,10.3-10.1,10.3H69V92h40v1.5c0,4.7-3.8,8.6-8.4,8.6L89,102z"/>
		<path id="Fill-9" class="st4" d="M62,16.9c-6.7,0-12.1,5.4-12.1,12.1c0,6.7,5.4,12.1,12.1,12.1S74.1,35.7,74.1,29
			C74.1,22.3,68.7,16.9,62,16.9 M62,14c8.3,0,15,6.7,15,15s-6.7,15-15,15c-8.3,0-15-6.7-15-15S53.7,14,62,14"/>
		<path id="Fill-11" class="st5" d="M65.1,29.5c0-2-1.6-3.6-3.6-3.6s-3.6,1.6-3.6,3.6c0,2,1.6,3.6,3.6,3.6
			C63.5,33.1,65.1,31.5,65.1,29.5 M61.5,23c3.6,0,6.5,2.9,6.5,6.5S65.1,36,61.5,36c-3.6,0-6.5-2.9-6.5-6.5S57.9,23,61.5,23"/>
		<path id="Fill-13" class="st6" d="M164.4,0h23.9C203.5,0,216,12.6,216,28V52c0,15.4-12.5,28-27.8,28h-53.5
			C119.5,80,107,67.4,107,52V28c0-15.4,12.5-28,27.8-28H164.4z M166.1,2.9h-31.4c-13.7,0-24.9,11.3-24.9,25V52
			c0,13.8,11.2,25,24.9,25h53.5c13.7,0,24.9-11.3,24.9-25V28c0-13.8-11.2-25-24.9-25H166.1z"/>
		<path id="Fill-15" class="st7" d="M160.6,87.8h-29.2c-8,0-14.5,6.4-14.5,14.2c0,7.8,6.5,14.2,14.5,14.2h56.1
			c8,0,14.5-6.4,14.5-14.2c0-7.8-6.5-14.2-14.5-14.2H160.6z M159.1,85h28.5c9.6,0,17.4,7.6,17.4,17s-7.8,17-17.4,17h-56.1
			c-9.6,0-17.4-7.6-17.4-17s7.8-17,17.4-17H159.1z"/>
		<path id="Fill-17" class="st8" d="M153.5,69.8h-6.1c-4.3,0-7.9-3.5-7.9-7.7V52H138c-3,0-4.7-3.1-3.7-5.7l7.2-17.6
			c3.2-10.4,13-17.6,24.2-17.6c14,0,25.3,11.1,25.3,24.8c0,6.3-2.4,12.3-6.8,16.9V76h-2.9V51.5l0.4-0.4c4.1-4.1,6.4-9.6,6.4-15.3
			c0-12.1-10-21.9-22.3-21.9c-9.9,0-18.6,6.4-21.4,15.6l0,0.1L137,47.3c-0.3,0.7,0.1,1.8,0.9,1.8h4.4v13c0,2.7,2.2,4.9,5,4.9h9v9
			h-2.9V69.8z"/>
		<path id="Fill-19" class="st6" d="M156,31c-2.2,0-4,1.8-4,4c0,2.2,1.8,4,4,4c2.2,0,4-1.8,4-4C160,32.8,158.2,31,156,31 M156,28
			c3.9,0,7,3.1,7,7s-3.1,7-7,7s-7-3.1-7-7S152.1,28,156,28"/>
		<path id="Fill-21" class="st9" d="M192.2,100h-5.3c-0.5,0-0.8,0.5-0.8,1.1v1.8c0,0.6,0.4,1.1,0.8,1.1h5.3c0.5,0,0.8-0.5,0.8-1.1
			v-1.8C193,100.5,192.6,100,192.2,100"/>
		<path id="Fill-23" class="st9" d="M182,100L182,100c1.1,0,2,0.9,2,2v0c0,1.1-0.9,2-2,2c-1.1,0-2-0.9-2-2v0
			C180,100.9,180.9,100,182,100"/>
		<path id="Fill-25" class="st9" d="M176,100L176,100c1.1,0,2,0.9,2,2l0,0c0,1.1-0.9,2-2,2s-2-0.9-2-2v0
			C174,100.9,174.9,100,176,100"/>
		<path id="Fill-27" class="st9" d="M171,100L171,100c1.1,0,2,0.9,2,2v0c0,1.1-0.9,2-2,2c-1.1,0-2-0.9-2-2v0
			C169,100.9,169.9,100,171,100"/>
		<path id="Fill-29" class="st9" d="M164,100L164,100c1.1,0,2,0.9,2,2v0c0,1.1-0.9,2-2,2c-1.1,0-2-0.9-2-2v0
			C162,100.9,162.9,100,164,100"/>
		<path id="Fill-31" class="st9" d="M160,100L160,100c1.1,0,2,0.9,2,2v0c0,1.1-0.9,2-2,2s-2-0.9-2-2v0C158,100.9,158.9,100,160,100"
			/>
		<path id="Fill-33" class="st9" d="M153,100L153,100c1.1,0,2,0.9,2,2v0c0,1.1-0.9,2-2,2s-2-0.9-2-2v0C151,100.9,151.9,100,153,100"
			/>
		<path id="Fill-35" class="st9" d="M149,100L149,100c1.1,0,2,0.9,2,2v0c0,1.1-0.9,2-2,2h0c-1.1,0-2-0.9-2-2v0
			C147,100.9,147.9,100,149,100"/>
		<path id="Fill-37" class="st9" d="M143,100L143,100c1.1,0,2,0.9,2,2v0c0,1.1-0.9,2-2,2c-1.1,0-2-0.9-2-2v0
			C141,100.9,141.9,100,143,100"/>
		<path id="Fill-39" class="st9" d="M137,100L137,100c1.1,0,2,0.9,2,2v0c0,1.1-0.9,2-2,2s-2-0.9-2-2v0C135,100.9,135.9,100,137,100"
			/>
		<path id="Fill-41" class="st9" d="M132,100L132,100c1.1,0,2,0.9,2,2v0c0,1.1-0.9,2-2,2c-1.1,0-2-0.9-2-2v0
			C130,100.9,130.9,100,132,100"/>
		<path id="Fill-43" class="st9" d="M125,100L125,100c1.1,0,2,0.9,2,2v0c0,1.1-0.9,2-2,2c-1.1,0-2-0.9-2-2v0
			C123,100.9,123.9,100,125,100"/>
		<path id="Fill-45" class="st9" d="M185,93L185,93c1.1,0,2,0.9,2,2v0c0,1.1-0.9,2-2,2h0c-1.1,0-2-0.9-2-2v0
			C183,93.9,183.9,93,185,93"/>
		<path id="Fill-47" class="st9" d="M181,93L181,93c1.1,0,2,0.9,2,2v0c0,1.1-0.9,2-2,2s-2-0.9-2-2v0C179,93.9,179.9,93,181,93"/>
		<path id="Fill-49" class="st9" d="M175,93L175,93c1.1,0,2,0.9,2,2v0c0,1.1-0.9,2-2,2s-2-0.9-2-2v0C173,93.9,173.9,93,175,93"/>
		<path id="Fill-51" class="st9" d="M171,93L171,93c1.1,0,2,0.9,2,2v0c0,1.1-0.9,2-2,2s-2-0.9-2-2v0C169,93.9,169.9,93,171,93"/>
		<path id="Fill-53" class="st9" d="M164,93L164,93c1.1,0,2,0.9,2,2v0c0,1.1-0.9,2-2,2s-2-0.9-2-2v0C162,93.9,162.9,93,164,93"/>
		<path id="Fill-55" class="st9" d="M159,93L159,93c1.1,0,2,0.9,2,2v0c0,1.1-0.9,2-2,2s-2-0.9-2-2v0C157,93.9,157.9,93,159,93"/>
		<path id="Fill-57" class="st9" d="M153,93L153,93c1.1,0,2,0.9,2,2v0c0,1.1-0.9,2-2,2s-2-0.9-2-2v0C151,93.9,151.9,93,153,93"/>
		<path id="Fill-59" class="st9" d="M149,93L149,93c1.1,0,2,0.9,2,2v0c0,1.1-0.9,2-2,2c-1.1,0-2-0.9-2-2l0,0
			C147,93.9,147.9,93,149,93"/>
		<path id="Fill-61" class="st9" d="M143,93L143,93c1.1,0,2,0.9,2,2v0c0,1.1-0.9,2-2,2s-2-0.9-2-2v0C141,93.9,141.9,93,143,93"/>
		<path id="Fill-63" class="st9" d="M138,93L138,93c1.1,0,2,0.9,2,2v0c0,1.1-0.9,2-2,2c-1.1,0-2-0.9-2-2v0C136,93.9,136.9,93,138,93
			"/>
		<path id="Fill-65" class="st9" d="M133,92L133,92c1.1,0,2,0.9,2,2v0c0,1.1-0.9,2-2,2s-2-0.9-2-2v0C131,92.9,131.9,92,133,92"/>
		<path id="Fill-67" class="st9" d="M185,107L185,107c1.1,0,2,0.9,2,2v0c0,1.1-0.9,2-2,2c-1.1,0-2-0.9-2-2v0
			C183,107.9,183.9,107,185,107"/>
		<path id="Fill-69" class="st9" d="M179,107L179,107c1.1,0,2,0.9,2,2v0c0,1.1-0.9,2-2,2s-2-0.9-2-2v0C177,107.9,177.9,107,179,107"
			/>
		<path id="Fill-71" class="st9" d="M137,107L137,107c1.1,0,2,0.9,2,2v0c0,1.1-0.9,2-2,2c-1.1,0-2-0.9-2-2v0
			C135,107.9,135.9,107,137,107"/>
		<path id="Fill-73" class="st9" d="M132,107L132,107c1.1,0,2,0.9,2,2v0c0,1.1-0.9,2-2,2s-2-0.9-2-2v0C130,107.9,130.9,107,132,107"
			/>
		<path id="Fill-75" class="st9" d="M143.6,107h30.7c0.9,0,1.6,0.9,1.6,2c0,1.1-0.7,2-1.6,2h-30.7c-0.9,0-1.6-0.9-1.6-2
			C142,107.9,142.7,107,143.6,107"/>
		<path id="Fill-77" class="st10" d="M158.7,53.3c-3.8,4.9-9.7,7.7-16.1,7.7c-0.2,0-0.4,0-0.6,0v-2.9c0.2,0,0.4,0,0.6,0
			c5.4,0,10.5-2.4,13.6-6.5c0.5-0.6,1.5-0.8,2.1-0.3C159.1,51.7,159.2,52.6,158.7,53.3"/>
	</g>
</g>
</svg>
